<?xml version="1.0" encoding="iso-8859-1"?>
<!-- Generator: Adobe Illustrator 19.0.0, SVG Export Plug-In . SVG Version: 6.00 Build 0)  -->
<svg version="1.1" id="Layer_1" xmlns="http://www.w3.org/2000/svg" xmlns:xlink="http://www.w3.org/1999/xlink" x="0px" y="0px"
	 viewBox="0 0 511.999 511.999" style="enable-background:new 0 0 511.999 511.999;" xml:space="preserve">
<path style="fill:#FEA921;" d="M58.319,73.05c0.943,108.543,89.211,196.246,197.977,196.246S453.329,181.594,454.272,73.05H58.319z"
	/>
<path style="fill:#E58200;" d="M425.747,73.05c-0.902,103.756-81.598,188.461-183.714,195.731c4.712,0.336,9.466,0.515,14.263,0.515
	c108.766,0,197.034-87.703,197.977-196.246H425.747z"/>
<path style="fill:#FEA921;" d="M471.16,43.264H41.43c-8.226,0-14.893,6.668-14.893,14.893l0,0c0,8.226,6.668,14.893,14.893,14.893
	h429.73c8.226,0,14.893-6.668,14.893-14.893l0,0C486.055,49.931,479.386,43.264,471.16,43.264z"/>
<g>
	<path style="fill:#FB0125;" d="M110.945,8.863L110.945,8.863c-18.926,0-34.27,15.343-34.27,34.27l0,0h68.54l0,0
		C145.215,24.205,129.871,8.863,110.945,8.863z"/>
	<path style="fill:#FB0125;" d="M209.421,8.863L209.421,8.863c-18.926,0-34.27,15.343-34.27,34.27l0,0h68.54l0,0
		C243.691,24.205,228.347,8.863,209.421,8.863z"/>
	<path style="fill:#FB0125;" d="M307.897,8.863L307.897,8.863c-18.926,0-34.27,15.343-34.27,34.27l0,0h68.54l0,0
		C342.167,24.205,326.824,8.863,307.897,8.863z"/>
	<path style="fill:#FB0125;" d="M406.374,8.863L406.374,8.863c-18.926,0-34.27,15.343-34.27,34.27l0,0h68.54l0,0
		C440.644,24.205,425.3,8.863,406.374,8.863z"/>
</g>
<g>
	<path style="fill:#CC111E;" d="M406.374,8.863c-5.092,0-9.919,1.119-14.263,3.11c11.804,5.412,20.006,17.324,20.006,31.16h28.525
		C440.644,24.205,425.3,8.863,406.374,8.863z"/>
	<path style="fill:#CC111E;" d="M307.897,8.863c-5.092,0-9.919,1.119-14.263,3.11c11.804,5.412,20.006,17.324,20.006,31.16h28.525
		C342.167,24.205,326.824,8.863,307.897,8.863z"/>
	<path style="fill:#CC111E;" d="M209.421,8.863c-5.092,0-9.919,1.119-14.263,3.11c11.804,5.412,20.006,17.324,20.006,31.16h28.525
		C243.691,24.205,228.347,8.863,209.421,8.863z"/>
	<path style="fill:#CC111E;" d="M110.945,8.863c-5.092,0-9.919,1.119-14.263,3.11c11.804,5.412,20.006,17.324,20.006,31.16h28.525
		C145.215,24.205,129.871,8.863,110.945,8.863z"/>
</g>
<g>
	<path style="fill:#E58200;" d="M457.78,73.05h13.381c7.847,0,14.261-6.072,14.836-13.771l-0.009-2.434
		c-0.665-7.61-7.044-13.583-14.827-13.583h-13.576L457.78,73.05z"/>
	<path style="fill:#E58200;" d="M60.56,101.137h377.541V73.05H58.319C58.402,82.59,59.174,91.965,60.56,101.137z"/>
</g>
<path style="fill:#FCB349;" d="M173.313,154.446c-8.142-8.077-15.29-16.896-21.38-26.304c-3.911-6.042-10.704-9.599-17.903-9.599
	h-1.88c-16.116,0-26.273,17.234-18.592,31.403c7.237,13.351,16.475,25.712,27.553,36.701c16.211,16.081,35.33,28.19,56.16,35.843
	c13.824,5.079,28.482-5.194,28.482-19.921l0,0c0-8.088-4.624-15.426-11.866-19.027C199.08,176.18,185.387,166.422,173.313,154.446z"
	/>
<path style="fill:#1A1A1A;" d="M499.726,99.855h-38.54c0.814-5.925,1.374-11.909,1.678-17.941h8.298
	c13.099,0,23.757-10.658,23.757-23.757S484.261,34.4,471.162,34.4h-22.544C444.568,14.789,427.166,0,406.374,0
	s-38.194,14.789-42.243,34.4h-13.99C346.092,14.789,328.689,0,307.897,0c-20.792,0-38.194,14.789-42.243,34.4h-13.99
	C247.616,14.789,230.213,0,209.421,0s-38.194,14.789-42.243,34.4h-13.99C149.139,14.789,131.737,0,110.945,0
	S72.751,14.789,68.702,34.4H41.43c-13.099,0-23.757,10.658-23.757,23.757S28.331,81.914,41.43,81.914h8.298
	c0.304,6.033,0.864,12.017,1.678,17.941H12.275c-4.895,0-8.863,3.968-8.863,8.863s3.968,8.863,8.863,8.863h42.354
	c8.616,37.865,27.783,72.596,56.003,100.589c10.189,10.107,21.253,19.015,33.01,26.68l-29.806,102.457
	c-0.15,0.323-0.288,0.654-0.402,1c-0.176,0.539-0.292,1.081-0.362,1.624L71.8,491.796c-1.367,4.701,1.334,9.619,6.034,10.986
	c0.827,0.24,1.66,0.354,2.48,0.354c3.841,0,7.38-2.516,8.506-6.39l39.097-134.391l119.514,39.005v101.774
	c0,4.895,3.968,8.863,8.863,8.863c4.895,0,8.863-3.968,8.863-8.863V401.688l119.719-39.324l39.095,134.384
	c1.127,3.874,4.665,6.39,8.506,6.39c0.819,0,1.653-0.115,2.48-0.354c4.7-1.367,7.401-6.286,6.034-10.986L399.72,349.932
	c-0.071-0.545-0.187-1.091-0.364-1.632c-0.112-0.345-0.251-0.674-0.399-0.994l-29.838-102.567
	c11.693-7.64,22.701-16.511,32.84-26.57c28.219-27.992,47.387-62.726,56.003-100.589h41.763c4.895,0,8.863-3.968,8.863-8.863
	S504.621,99.855,499.726,99.855z M406.374,17.726c10.893,0,20.209,6.892,23.812,16.544h-47.624
	C386.165,24.618,395.481,17.726,406.374,17.726z M307.897,17.726c10.893,0,20.209,6.892,23.812,16.544h-47.623
	C287.689,24.618,297.004,17.726,307.897,17.726z M209.421,17.726c10.893,0,20.209,6.892,23.812,16.544h-47.624
	C189.213,24.618,198.528,17.726,209.421,17.726z M110.945,17.726c10.893,0,20.209,6.892,23.812,16.544H87.132
	C90.736,24.618,100.052,17.726,110.945,17.726z M379.924,345.335l-114.765,37.52v-39.993c0-4.895-3.968-8.863-8.863-8.863
	c-4.895,0-8.863,3.968-8.863,8.863v39.855l-114.56-37.388l26.522-91.166c26.951,14.325,56.89,22.494,88.038,23.8v32.101
	c0,4.895,3.968,8.863,8.863,8.863c4.895,0,8.863-3.968,8.863-8.863v-32.101c31.216-1.309,61.216-9.513,88.213-23.896
	L379.924,345.335z M265.159,260.22v-36.416c0-4.895-3.968-8.863-8.863-8.863c-4.895,0-8.863,3.968-8.863,8.863v36.416
	c-96.357-4.504-174.575-82.012-179.957-178.307h294.141c4.895,0,8.863-3.968,8.863-8.863c0-4.895-3.968-8.863-8.863-8.863H41.43
	c-3.325,0-6.031-2.706-6.031-6.031s2.706-6.031,6.031-6.031h429.73c3.325,0,6.031,2.706,6.031,6.031s-2.706,6.031-6.031,6.031
	h-76.259c-4.895,0-8.863,3.968-8.863,8.863c0,4.895,3.968,8.863,8.863,8.863h50.212c-0.468,8.38-1.485,16.616-3.022,24.675
	c-0.06,0.243-0.11,0.492-0.149,0.743C425.551,191.524,352.872,256.121,265.159,260.22z"/>
<g>
</g>
<g>
</g>
<g>
</g>
<g>
</g>
<g>
</g>
<g>
</g>
<g>
</g>
<g>
</g>
<g>
</g>
<g>
</g>
<g>
</g>
<g>
</g>
<g>
</g>
<g>
</g>
<g>
</g>
</svg>
