<svg width="43" height="122" viewBox="0 0 43 122" fill="none" xmlns="http://www.w3.org/2000/svg">
<path fill-rule="evenodd" clip-rule="evenodd" d="M19.3112 81.4562C14.6413 81.1643 10.2633 78.8294 7.05276 75.6189C3.25848 71.5327 1.2154 66.5709 1.2154 60.7336C1.2154 56.0637 2.96661 51.6856 5.88529 47.8914C8.80398 44.3889 12.8901 41.7621 17.56 40.8865C22.2299 40.0109 26.8998 40.5947 30.986 42.9296C35.0721 45.2645 38.2827 48.767 40.0339 53.145C41.7851 57.523 42.077 62.4848 40.6176 66.8628C39.1583 71.5327 36.5315 75.327 32.4453 77.9538C28.651 80.5806 23.9811 81.7481 19.3112 81.4562ZM17.8519 43.8052C14.0576 44.6808 10.5552 46.7239 7.92837 49.9344C5.59342 53.145 4.13408 56.9393 4.42595 61.0254C4.42595 65.6953 6.17716 70.3652 9.38771 73.5758C12.3064 76.4945 15.8088 78.2457 19.895 78.5375C23.6893 78.8294 27.7754 77.9538 30.986 75.6189C34.1965 73.2839 36.5315 70.0734 37.6989 65.9872C38.8664 62.1929 38.8664 58.1068 37.1152 54.3125C35.364 50.5182 32.7372 47.5995 29.2348 45.5564C25.7323 43.5133 21.6462 42.9296 17.8519 43.8052V43.8052Z" fill="#0B346E"/>
<path fill-rule="evenodd" clip-rule="evenodd" d="M26.8999 69.7814L24.6321 70.9956L11.498 62.2396L11.498 59.8112L24.6321 51.0552L26.8999 52.2693L26.8999 69.7814ZM23.9812 67.0554L23.9812 54.9954L14.9362 61.0254L23.9812 67.0554Z" fill="#0B346E"/>
</svg>
