<svg xmlns="http://www.w3.org/2000/svg" width="23" height="23" fill="none" viewBox="0 0 23 23">
  <path fill="#fff" d="M0 .75A.75.75 0 0 1 .75 0H3a.75.75 0 0 1 .728.569L4.335 3H21.75a.75.75 0 0 1 .735.897l-1.5 7.5a.75.75 0 0 1-.697.601l-14.096.709.43 2.293H19.5a.75.75 0 1 1 0 1.5H6a.75.75 0 0 1-.737-.612L3.015 3.911l-.6-2.411H.75A.75.75 0 0 1 0 .75ZM4.653 4.5l1.26 6.719 13.716-.689 1.206-6.03H4.653Zm2.847 12a3 3 0 1 0 0 6 3 3 0 0 0 0-6Zm10.5 0a3 3 0 1 0 0 6 3 3 0 0 0 0-6ZM7.5 18a1.5 1.5 0 1 1 0 3 1.5 1.5 0 0 1 0-3ZM18 18a1.5 1.5 0 1 1 0 3 1.5 1.5 0 0 1 0-3Z"/>
</svg>
