<svg xmlns="http://www.w3.org/2000/svg" width="31" height="29" fill="none" viewBox="0 0 31 29">
  <g clip-path="url(#a)">
    <path fill="#F44336" d="M28.416 3.485c.761 0 1.378-.578 1.378-1.29 0-.712-.617-1.289-1.378-1.289-.761 0-1.378.577-1.378 1.29 0 .711.617 1.289 1.378 1.289Z"/>
    <path stroke="#84B0C1" stroke-linecap="round" stroke-miterlimit="10" stroke-width="1.919" d="M19.397 17.758s2.303 2.9 2.303 4.044c0 1.144-.993 2.073-2.216 2.073-1.044 0-14.095-.025-15.536-.025-1.441 0-2.258.791-2.258.791"/>
    <path stroke="#84B0C1" stroke-linecap="round" stroke-miterlimit="10" stroke-width="1.919" d="M14.248 17.475s2.567 3.183 2.567 4.33c0 1.146-1.124 2.066-2.347 2.066"/>
    <path fill="#2F7889" d="M20.046 19.65c-.487-.78-.882-1.233-1.516-2.044 0 0 .167.034.617.034.45 0 .775-.134.775-.134.64.846.831 1.06 1.172 1.627 0 0-.012.37-.327.564-.314.195-.721-.047-.721-.047Zm-4.895.038c-.675-.965-1.216-1.701-1.216-1.701l1.454.032s.651.817 1.024 1.465c0 0 .056.295-.36.449-.417.15-.902-.245-.902-.245Z"/>
    <path stroke="#84B0C1" stroke-miterlimit="10" stroke-width="1.919" d="M19.402 17.817 2.463 16.76c-.056-.004-.097-.045-.097-.097V7.816c0-.083.07-.154.16-.158L23.991 6.38c.208-.014.359.181.284.363L19.716 17.63a.315.315 0 0 1-.315.186Z"/>
    <g filter="url(#b)">
      <path stroke="#84B0C1" stroke-miterlimit="10" stroke-width="1.152" d="m5.733 7.49-.446 9.389m4.29-9.634-1.394 9.836M13.422 7 11.08 17.282m6.188-10.526-3.291 10.728M21.11 6.51l-4.238 11.175M2.008 10.984l20.721-.666M2.2 14.072h19.23" shape-rendering="crispEdges"/>
    </g>
    <path fill="#424242" d="M19.474 28.094c1.009 0 1.826-.765 1.826-1.709 0-.943-.817-1.708-1.826-1.708-1.008 0-1.826.765-1.826 1.709 0 .943.818 1.708 1.826 1.708Z"/>
    <path fill="#84B0C1" d="M18.297 24.034h2.357l-.562 2.286c-.053.355-.313.614-.615.614-.303 0-.565-.259-.616-.614l-.564-2.286Z"/>
    <path fill="#A8E3F0" d="M19.852 26.401c-.043.15-.123.32-.286.358-.586.14-.668-1.207-.373-1.438.18-.14.553-.166.71.009.201.222.024.824-.05 1.071Z"/>
    <path fill="#2F7889" d="M19.503 24.843c-.39 0-.666-.216-.801-.35a.063.063 0 0 1-.018-.031.06.06 0 0 1 .003-.037.065.065 0 0 1 .024-.028.072.072 0 0 1 .037-.012c.252-.011.503-.01.753-.016.252.007.504.005.753.016.058.002.087.07.046.109a1.125 1.125 0 0 1-.797.349Z"/>
    <path fill="#757575" d="M18.9 26.965c.158.17.41.25.65.223a.908.908 0 0 0 .598-.34c.082-.107.14-.23.235-.327.094-.097.244-.165.375-.115.184.068.208.308.145.482a1.358 1.358 0 0 1-.287.474 1.466 1.466 0 0 1-.461.333c-.24.111-.574.156-.84.131-.512-.05-1.061-.482-1.24-.926-.097-.238-.182-.716.324-.607.235.052.312.469.501.672Z"/>
    <path stroke="#84B0C1" stroke-linecap="round" stroke-miterlimit="10" stroke-width="1.919" d="m24.175 6.958 1.117-2.554c.455-1.042.792-1.275 1.467-1.558l1.582-.6"/>
    <path fill="#424242" d="M4.747 28.094c1.008 0 1.826-.765 1.826-1.709 0-.943-.818-1.708-1.826-1.708-1.009 0-1.826.765-1.826 1.709 0 .943.817 1.708 1.826 1.708Z"/>
    <path fill="#84B0C1" d="M3.567 24.034h2.357l-.562 2.286c-.053.355-.312.614-.615.614s-.564-.259-.615-.614l-.565-2.286Z"/>
    <path fill="#A8E3F0" d="M5.125 26.401c-.044.15-.124.32-.286.358-.586.14-.668-1.207-.373-1.438.18-.14.552-.166.71.009.2.222.021.824-.051 1.071Z"/>
    <path fill="#2F7889" d="M4.776 24.843c-.39 0-.666-.216-.802-.35a.06.06 0 0 1-.015-.068.065.065 0 0 1 .025-.028.072.072 0 0 1 .036-.012c.252-.011.504-.01.753-.016.252.007.504.005.754.016.058.002.087.07.046.109a1.14 1.14 0 0 1-.797.349Z"/>
    <path fill="#757575" d="M4.17 26.965c.158.17.41.25.65.223a.908.908 0 0 0 .598-.34c.082-.107.14-.23.235-.327.094-.097.244-.165.375-.115.184.068.208.308.145.482a1.357 1.357 0 0 1-.287.474 1.465 1.465 0 0 1-.461.333c-.24.111-.574.156-.84.131-.511-.05-1.061-.482-1.24-.926-.097-.238-.182-.716.324-.607.235.052.313.469.501.672Z"/>
  </g>
  <defs>
    <clipPath id="a">
      <path fill="#fff" d="M0 0h31v29H0z"/>
    </clipPath>
    <filter id="b" width="28.759" height="19.582" x="-2.011" y="6.307" color-interpolation-filters="sRGB" filterUnits="userSpaceOnUse">
      <feFlood flood-opacity="0" result="BackgroundImageFix"/>
      <feColorMatrix in="SourceAlpha" result="hardAlpha" values="0 0 0 0 0 0 0 0 0 0 0 0 0 0 0 0 0 0 127 0"/>
      <feOffset dy="4"/>
      <feGaussianBlur stdDeviation="2"/>
      <feComposite in2="hardAlpha" operator="out"/>
      <feColorMatrix values="0 0 0 0 0 0 0 0 0 0 0 0 0 0 0 0 0 0 0.25 0"/>
      <feBlend in2="BackgroundImageFix" result="effect1_dropShadow_111_369"/>
      <feBlend in="SourceGraphic" in2="effect1_dropShadow_111_369" result="shape"/>
    </filter>
  </defs>
</svg>
